<?xml version="1.0" encoding="utf-8"?>
<!-- Generator: Adobe Illustrator 28.4.1, SVG Export Plug-In . SVG Version: 6.00 Build 0)  -->
<svg version="1.1" id="Layer_1" xmlns="http://www.w3.org/2000/svg" xmlns:xlink="http://www.w3.org/1999/xlink" x="0px" y="0px"
	 viewBox="0 0 1000 1000" style="enable-background:new 0 0 1000 1000;" xml:space="preserve">
<style type="text/css">
	.st0{fill:#EFC62F;}
</style>
<path class="st0" d="M711,125c81.3,80,122,176.7,122,290s-40.7,210-122,290L416,995L123,705C41,625,0,528.3,0,415s41-210,123-290
	S303.3,5,418,5S630.3,45,711,125z M416,551c36.7,0,67.7-12.3,93-37c26-26,39-56.7,39-92s-13-66-39-92s-56.7-39-92-39s-66,13-92,39
	s-39,56.7-39,92s13,66,39,92C350.3,538.7,380.7,551,416,551z"/>
</svg>
