<?xml version="1.0" encoding="utf-8"?>
<!-- Generator: Adobe Illustrator 28.4.1, SVG Export Plug-In . SVG Version: 6.00 Build 0)  -->
<svg version="1.1" id="Layer_1" xmlns="http://www.w3.org/2000/svg" xmlns:xlink="http://www.w3.org/1999/xlink" x="0px" y="0px"
	 viewBox="0 0 4880.7 792" style="enable-background:new 0 0 4880.7 792;" xml:space="preserve">
<style type="text/css">
	.st0{fill-rule:evenodd;clip-rule:evenodd;fill:#EFC62F;}
	.st1{fill:none;}
	.st2{fill:#EFC62F;}
	.st3{fill:#F71500;}
</style>
<g id="Слой_x0020_1">
	<polygon class="st0" points="612,177.2 465.2,169.5 244.3,342.5 270.5,362.8 469.3,215.6 510.4,215.1 285.4,375 305.3,390.8 
		514,244 514,385.4 475.6,384.9 371.3,442.7 404.2,468.9 475.6,433.3 546.5,433.7 429.5,488.8 452.6,506.9 453,507.3 609.7,436 
		609.7,388.1 575.4,385.4 575.4,217.4 612,217.8 	"/>
	<polygon class="st0" points="0,292.3 146.8,284.7 439.9,514.6 407.4,527.2 143.2,330.7 101.6,330.3 388.4,534.4 361.8,544.8 
		98.5,359.6 98,500.6 136.4,500.6 276.4,577.3 230.3,595 136.4,548.4 65.5,548.9 193.8,609 159,622.5 2.7,551.1 2.7,503.3 
		36.6,500.6 36.6,332.5 0,333 	"/>
</g>
<path class="st1" d="M739.2,90.9"/>
<g>
	<path class="st2" d="M862.9,185.5c6.9,13.6,14.9,30.4,23.9,50.3c9,20,18.4,41.6,28.2,64.9c9.8,23.3,19.5,47.1,29.1,71.4
		s18.6,47.2,27,68.6c8.4-21.4,17.4-44.3,27-68.6c9.6-24.3,19.3-48.1,29-71.4c9.8-23.3,19.2-44.9,28.2-64.9s17-36.8,23.9-50.3h81.5
		c3.8,28.4,7.4,60.2,10.6,95.4s6.1,71.9,8.6,110s4.8,76.3,6.9,114.6s3.9,74.3,5.5,108.1H1105c-1.1-41.6-2.7-86.9-4.6-135.9
		s-4.8-98.4-8.6-148.3c-6.9,17.3-14.6,36.4-23,57.5c-8.4,21-16.8,42-25,63s-16.2,41.1-23.9,60.2c-7.7,19.2-14.2,35.5-19.6,49.1
		h-62.5c-5.4-13.6-11.9-30-19.6-49.1c-7.7-19.2-15.6-39.2-23.9-60.2c-8.2-21-16.6-42-25-63s-16.1-40.2-23-57.5
		c-3.8,49.8-6.7,99.3-8.6,148.3c-1.9,49-3.4,94.3-4.6,135.9h-87.2c1.5-33.8,3.3-69.8,5.5-108.1c2.1-38.3,4.4-76.5,6.9-114.6
		s5.4-74.7,8.6-110c3.2-35.2,6.8-67,10.6-95.4L862.9,185.5L862.9,185.5z"/>
	<path class="st2" d="M1271.9,613.6V185.5h268.5v80.9h-179v84h158.9v79.1h-158.9v103.2h192.2v80.9L1271.9,613.6L1271.9,613.6z"/>
	<path class="st2" d="M1914.5,185.5v82.2h-119.9v345.9h-89.5V267.7h-119.9v-82.2L1914.5,185.5L1914.5,185.5z"/>
	<path class="st2" d="M2191.6,613.6c-4.4-14.9-9.2-30.2-14.3-45.8s-10.2-31.3-15.2-46.8h-155.3c-5,15.6-10.1,31.3-15.1,47
		s-9.7,30.9-14.1,45.7h-92.9c15-46.1,29.2-88.7,42.6-127.9c13.4-39.1,26.6-76,39.4-110.6c12.9-34.6,25.5-67.4,38-98.5
		s25.4-61.5,38.9-91.1h84.8c13.1,29.7,25.9,60,38.6,91.1c12.7,31.1,25.5,63.9,38.3,98.5c12.9,34.6,26,71.5,39.5,110.6
		c13.4,39.1,27.7,81.8,42.7,127.9h-95.9V613.6z M2084,282.5c-2,6.2-4.9,14.7-8.8,25.4c-3.8,10.7-8.2,23.1-13.1,37.1
		c-4.9,14-10.4,29.5-16.5,46.3c-6.1,16.9-12.2,34.5-18.5,53h113.7c-6.1-18.6-12-36.3-17.7-53.2c-5.7-16.9-11.1-32.4-16.3-46.4
		c-5.1-14-9.6-26.4-13.5-37.1C2089.5,297,2086.4,288.6,2084,282.5z"/>
	<path class="st2" d="M2519.8,267.1c-1.1,27.6-2.6,55.3-4.3,83.1c-1.7,27.8-4.8,54.7-9.2,80.6s-10.7,50.2-18.9,72.9
		c-8.2,22.7-19.5,42.6-33.8,59.9c-14.3,17.3-32.2,31.1-53.6,41.4c-21.4,10.3-47.6,16.1-78.6,17.3l-9.8-84
		c27.5-3.3,48.8-10.8,63.7-22.5s26.2-29.7,33.8-54.1c9.6-30.1,16.4-68.9,20.4-116.4c4-47.6,6-100.8,6-159.7h271.4v428.1h-89.5V267.1
		H2519.8z"/>
	<path class="st2" d="M2972.4,267.1c-1.1,27.6-2.6,55.3-4.3,83.1c-1.7,27.8-4.8,54.7-9.2,80.6s-10.7,50.2-18.9,72.9
		c-8.2,22.7-19.5,42.6-33.8,59.9c-14.3,17.3-32.2,31.1-53.6,41.4c-21.4,10.3-47.6,16.1-78.6,17.3l-9.8-84
		c27.5-3.3,48.8-10.8,63.7-22.5s26.2-29.7,33.8-54.1c9.6-30.1,16.4-68.9,20.4-116.4c4-47.6,6-100.8,6-159.7h271.4v428.1H3070V267.1
		H2972.4z"/>
</g>
<g>
	<path class="st3" d="M3543.8,193.3v428.1h-39V229.7h-211.7v391.7h-39V193.3H3543.8z"/>
	<path class="st3" d="M3747.5,189.6c56.2,0,98.1,11.5,125.6,34.6s41.3,55.8,41.3,98.2c0,24.3-4,45-12,62.1s-19.5,30.9-34.4,41.4
		s-33.2,18.1-54.8,22.9c-21.6,4.7-46,7.1-73.1,7.1h-53.9v165.6h-39V201.3c13.8-4.1,29.9-7.1,48.5-9
		C3714.1,190.5,3731.4,189.6,3747.5,189.6z M3749.2,226c-14.5,0-26.9,0.5-37,1.5s-18.8,2-26.1,2.8v189h49.3c21,0,40.1-1.3,57.1-4
		s31.6-7.6,43.6-14.8c12-7.2,21.3-17.2,27.8-30s9.8-29,9.8-48.8c0-18.9-3.5-34.6-10.6-46.9c-7.1-12.4-16.4-22.1-28.1-29.3
		c-11.7-7.2-25-12.2-39.9-15.1C3780.2,227.5,3764.9,226,3749.2,226z"/>
	<path class="st3" d="M4343.5,407c0,36.7-5,69-14.9,97c-10,28-23.4,51.4-40.4,70.1c-17,18.7-36.8,32.8-59.4,42.3
		s-46.5,14.2-71.7,14.2s-49.2-4.7-71.7-14.2c-22.6-9.5-42.4-23.6-59.4-42.3s-30.5-42.1-40.4-70.1c-10-28-14.9-60.3-14.9-97
		c0-36.6,5-68.9,14.9-96.7s23.4-51.1,40.4-69.8s36.8-32.8,59.4-42.3s46.5-14.2,71.7-14.2s49.1,4.7,71.7,14.2s42.4,23.6,59.4,42.3
		s30.5,42,40.4,69.8C4338.6,338.1,4343.5,370.4,4343.5,407z M4302.2,407c0-28.8-3.4-54.7-10.3-77.5c-6.9-22.9-16.6-42.3-29.3-58.4
		c-12.6-16.1-27.8-28.3-45.6-36.8c-17.8-8.4-37.8-12.7-60-12.7s-42.2,4.2-60,12.7c-17.8,8.4-33,20.7-45.6,36.8s-22.4,35.5-29.3,58.4
		c-6.9,22.9-10.3,48.7-10.3,77.5s3.4,54.7,10.3,77.5c6.9,22.9,16.6,42.3,29.3,58.4c12.6,16.1,27.8,28.4,45.6,37.1
		c17.8,8.6,37.8,13,60,13s42.2-4.3,60-13c17.8-8.6,33-21,45.6-37.1s22.4-35.5,29.3-58.4C4298.8,461.7,4302.2,435.8,4302.2,407z"/>
	<path class="st3" d="M4609.7,559.6c-3.8-10.3-9.3-23.9-16.4-40.8c-7.1-16.9-15.1-35.3-23.9-55.3s-17.9-40.6-27.1-61.8
		c-9.2-21.2-18.1-41.1-26.5-59.6c-8.5-18.5-15.9-34.8-22.5-48.8c-6.5-14-11.3-23.9-14.4-29.7c-5,51.5-8.9,107.4-11.8,167.7
		s-5.5,123.7-7.7,190H4421c3.4-77.8,7.4-152.4,11.8-223.6s9.8-139.4,16.4-204.5h34.4c11.5,20.6,23.8,44.4,36.8,71.4s26,55,38.8,84
		s25.3,57.7,37.4,85.9c12.1,28.2,22.7,53.6,31.9,76.3c9.2-22.6,19.8-48.1,31.9-76.3c12.1-28.2,24.5-56.8,37.4-85.9
		c12.8-29,25.8-57,38.8-84s25.3-50.8,36.8-71.4h32.7c6.5,65.1,11.9,133.2,16.4,204.5c4.4,71.3,8.3,145.8,11.8,223.6h-39.6
		c-2.3-66.3-4.9-129.6-7.7-190c-2.9-60.3-6.8-116.2-11.8-167.7c-3.1,5.8-7.8,15.7-14.3,29.7s-14,30.3-22.4,48.8
		s-17.2,38.4-26.4,59.6c-9.2,21.2-18.2,41.8-27,61.8s-16.7,38.4-23.8,55.3c-7.1,16.9-12.5,30.5-16.4,40.8L4609.7,559.6L4609.7,559.6
		z"/>
</g>
</svg>
