<?xml version="1.0" encoding="utf-8"?>
<!-- Generator: Adobe Illustrator 28.4.1, SVG Export Plug-In . SVG Version: 6.00 Build 0)  -->
<svg version="1.1" id="Layer_1" xmlns="http://www.w3.org/2000/svg" xmlns:xlink="http://www.w3.org/1999/xlink" x="0px" y="0px"
	 viewBox="0 0 1000 1000" style="enable-background:new 0 0 1000 1000;" xml:space="preserve">
<style type="text/css">
	.st0{fill:#3167DB;}
</style>
<path class="st0" d="M1000,396v443c0,24.7-8.7,45.7-26,63s-38.3,26.3-63,27H89c-24,0-45-9-63-27s-26.7-39-26-63V396
	c16.7,18,35.3,34.3,56,49c134.7,91.3,227.3,155.3,278,192c21.3,16,38.3,28.3,51,37s30.3,17.7,53,27s43,13.7,61,13h2
	c18.7,0,39-4.3,61-13s39.7-17.7,53-27s30.3-21.7,51-37c63.3-45.3,156-109.3,278-192C965.3,430.3,984,414,1000,396z M1000,232
	c0,29.3-9,57.3-27,84s-40.7,49.7-68,69c-140,97.3-227.3,157.7-262,181l-53,39c-8,6-17.7,12-29,18s-22,11-32,15s-19.3,5.7-28,5h-2
	c-8,0-17-1.7-27-5s-20.7-8.3-32-15l-30-18c-8.7-5.3-18.7-12.7-30-22s-19-15-23-17L210,465c-64-44-102-70.7-114-80
	c-23.3-15.3-45-36.7-65-64S0.7,268,0,244c0-28.7,7.7-52.7,23-72s37.3-29,66-29h822c24,0,45,8.7,63,26S1000.7,207.3,1000,232z"/>
</svg>
