<?xml version="1.0" encoding="utf-8"?>
<!-- Generator: Adobe Illustrator 28.4.1, SVG Export Plug-In . SVG Version: 6.00 Build 0)  -->
<svg version="1.1" id="Layer_1" xmlns="http://www.w3.org/2000/svg" xmlns:xlink="http://www.w3.org/1999/xlink" x="0px" y="0px"
	 viewBox="0 0 1000 1000" style="enable-background:new 0 0 1000 1000;" xml:space="preserve">
<style type="text/css">
	.st0{fill:#3167DB;}
</style>
<path class="st0" d="M461,560c108-108,147.3-176.7,118-206l-8-8c-20-20-33.7-36-41-48s-8.7-30-4-54s21-53.3,49-88
	c13.3-16,25.7-29,37-39s23-15.3,35-16s22-1,30-1s17.7,4.3,29,13l24,18c4.7,3.3,13.3,11.7,26,25l21,22c32,32,30,96.7-6,194
	S667,567.7,567,667S368.7,834.3,272,871s-161,39-193,7l-23-22c-14-13.3-22.3-21.7-25-25l-18-24c-9.3-12.7-13.7-23-13-31l2-30
	c0.7-12,5.7-23.7,15-35s22-23.7,38-37c28-22.7,51.3-38.3,70-47s36.7-9.3,54-2s29,13.3,35,18s19,17,39,37
	C282.3,709.3,351.7,669.3,461,560z"/>
</svg>
