<?xml version="1.0" encoding="utf-8"?>
<!-- Generator: Adobe Illustrator 28.4.1, SVG Export Plug-In . SVG Version: 6.00 Build 0)  -->
<svg version="1.1" id="Layer_1" xmlns="http://www.w3.org/2000/svg" xmlns:xlink="http://www.w3.org/1999/xlink" x="0px" y="0px"
	 viewBox="0 0 1000 1000" style="enable-background:new 0 0 1000 1000;" xml:space="preserve">
<style type="text/css">
	.st0{fill:#3167DB;}
</style>
<path class="st0" d="M0,501c0-125.3,44.7-232.7,134-322S330.7,45,456,45s232.3,44.7,321,134s133,196.7,133,322s-44.3,232.3-133,321
	S581.3,955,456,955s-232.7-44.3-322-133S0,626.3,0,501z M119,501c0,93.3,33,172.7,99,238s145.3,98.3,238,99s172-32.3,238-99
	s99-146,99-238s-33-171.3-99-238s-145.3-99.7-238-99s-172,33.7-238,99S119,407.7,119,501z M291,570V453h117V240h117v330H291z"/>
</svg>
